<mxfile host="app.diagrams.net" modified="2023-11-26T08:28:49.101Z" agent="Mozilla/5.0 (Windows NT 10.0; Win64; x64) AppleWebKit/537.36 (KHTML, like Gecko) Chrome/119.0.0.0 Safari/537.36" version="22.1.4" etag="N4AFbMwGK2-W6XlrqDD5" type="github">
  <diagram name="Trang-1" id="0NcO3FsMC0pLIDNBYFPk">
    <mxGraphModel>
      <root>
        <mxCell id="0" />
        <mxCell id="1" parent="0" />
      </root>
    </mxGraphModel>
  </diagram>
</mxfile>
